<?xml version="1.0" encoding="utf-8"?>
<!-- Generator: Adobe Illustrator 21.0.2, SVG Export Plug-In . SVG Version: 6.00 Build 0)  -->
<svg version="1.1" id="Layer_1" xmlns="http://www.w3.org/2000/svg" xmlns:xlink="http://www.w3.org/1999/xlink" x="0px" y="0px"
	 viewBox="0 0 158 54" style="enable-background:new 0 0 158 54;" xml:space="preserve">
<style type="text/css">
	.st0{fill:#020203;}
	.st1{fill:#A6A6A6;}
	.st2{fill:#FFFFFF;}
	.st3{fill:url(#SVGID_1_);}
	.st4{fill:url(#SVGID_2_);}
	.st5{fill:url(#SVGID_3_);}
	.st6{fill:url(#SVGID_4_);}
	.st7{opacity:0.2;fill:#020203;enable-background:new    ;}
	.st8{opacity:0.12;fill:#020203;enable-background:new    ;}
	.st9{opacity:0.25;fill:#FFFFFF;enable-background:new    ;}
	.st10{fill:#FFFFFF;stroke:#FFFFFF;stroke-width:0.5;stroke-miterlimit:10;}
	.st11{fill:#FFED00;stroke:#FFED00;stroke-width:0.5;stroke-miterlimit:10;}
</style>
<path class="st0" d="M6.9,4.1h144.6c3.2,0,5.8,2.6,5.8,5.8v34.7c0,3.2-2.6,5.8-5.8,5.8H6.9c-3.2,0-5.8-2.6-5.8-5.8V9.9
	C1.1,6.7,3.7,4.1,6.9,4.1z"/>
<path class="st1" d="M151.5,5c2.7,0,4.9,2.2,4.9,4.9v34.7c0,2.7-2.2,4.9-4.9,4.9H6.9c-2.7,0-4.9-2.2-4.9-4.9c0,0,0,0,0,0l0,0V9.9
	C2,7.2,4.2,5,6.9,5c0,0,0,0,0,0H151.5 M151.5,4.1H6.9c-3.2,0-5.8,2.6-5.8,5.8v34.7c0,3.2,2.6,5.8,5.8,5.8h144.6
	c3.2,0,5.8-2.6,5.8-5.8V9.9C157.2,6.7,154.7,4.1,151.5,4.1z"/>
<path class="st2" d="M79.9,29.2c-2.7,0-4.9,2.2-4.9,4.9c0,2.7,2.2,4.9,4.9,4.9c2.7,0,4.9-2.2,4.9-4.9c0-2.7-2.1-4.9-4.8-4.9
	c0,0,0,0,0,0H79.9z M79.9,37.1c-1.6,0.1-3.1-1.1-3.2-2.8c-0.1-1.6,1.1-3.1,2.8-3.2c1.6-0.1,3.1,1.1,3.2,2.8c0,0,0,0,0,0
	c0,0.1,0,0.1,0,0.2C82.8,35.7,81.6,37.1,79.9,37.1C80,37.1,80,37.1,79.9,37.1L79.9,37.1z M69.2,29.2c-2.7,0-4.9,2.2-4.9,4.9
	c0,2.7,2.2,4.9,4.9,4.9c2.7,0,4.9-2.2,4.9-4.9c0-2.7-2.1-4.9-4.7-4.9H69.2L69.2,29.2z M69.2,37.1c-1.6,0.1-3.1-1.1-3.2-2.8
	c-0.1-1.6,1.1-3.1,2.8-3.2c1.6-0.1,3.1,1.1,3.2,2.8c0,0,0,0,0,0c0,0.1,0,0.1,0,0.2C72,35.7,70.8,37.1,69.2,37.1
	C69.2,37.1,69.2,37.1,69.2,37.1L69.2,37.1L69.2,37.1z M56.3,30.8v2.1h5c-0.1,1-0.5,1.9-1.2,2.6c-1,1-2.4,1.6-3.9,1.5
	c-3.1,0-5.6-2.5-5.6-5.6c0-3.1,2.5-5.6,5.6-5.6c1.4,0,2.8,0.5,3.8,1.5l1.5-1.5c-1.4-1.4-3.3-2.2-5.2-2.2c-4.2-0.2-7.8,3.1-8,7.3
	s3.1,7.8,7.3,8c0,0,0.1,0,0.1,0h0.6c3.7,0.2,6.9-2.6,7.1-6.4c0-0.2,0-0.4,0-0.7c0-0.4,0-0.9-0.1-1.3L56.3,30.8z M108.7,32.4
	c-0.8-2.4-3.3-3.7-5.7-2.9c-1.9,0.6-3.2,2.4-3.1,4.4c0,0.1,0,0.2,0,0.3c-0.1,2.7,2,4.9,4.7,4.9c0,0,0,0,0,0h0.2
	c1.6,0,3.2-0.8,4.1-2.2l-1.7-1.2c-0.5,0.8-1.4,1.4-2.4,1.4c-1,0-2-0.6-2.4-1.5l6.6-2.7L108.7,32.4z M102,34c-0.1-1.5,1-2.8,2.5-2.9
	c0,0,0,0,0,0l0,0c0.8-0.1,1.5,0.4,1.8,1L102,34z M96.7,38.8h2.2V24.3h-2.2V38.8z M93.1,30.3L93.1,30.3c-0.7-0.7-1.7-1.2-2.7-1.2
	c-2.7,0.1-4.8,2.4-4.7,5.2c0.1,2.5,2.1,4.6,4.7,4.7c1,0,1.9-0.4,2.6-1.2h0.1v0.7c0,1.9-1,2.9-2.6,2.9c-1.1,0-2.1-0.7-2.5-1.7
	l-1.9,0.8c0.7,1.8,2.5,2.9,4.4,2.9c2.5,0,4.6-1.5,4.6-5.1v-8.8h-2V30.3z M90.7,37.1c-1.6-0.1-2.9-1.6-2.7-3.2
	c0.1-1.4,1.3-2.6,2.7-2.7c1.5,0.1,2.7,1.4,2.6,2.9v0.1c0.1,1.5-1,2.8-2.5,3L90.7,37.1L90.7,37.1z M118.9,24.3h-5.2v14.5h2.2v-5.5h3
	c2.5,0.2,4.6-1.7,4.8-4.2c0.2-2.5-1.7-4.6-4.2-4.8C119.3,24.3,119.1,24.3,118.9,24.3L118.9,24.3z M118.9,31.3h-3v-4.9h3.1
	c1.4,0,2.5,1.1,2.5,2.5C121.4,30.2,120.3,31.3,118.9,31.3L118.9,31.3z M132.2,29.2c-1.6-0.1-3.1,0.8-3.9,2.2l1.9,0.8
	c0.4-0.7,1.2-1.1,2-1.1c1.1-0.1,2.2,0.7,2.3,1.8c0,0,0,0,0,0v0.2c-0.7-0.4-1.5-0.6-2.3-0.6c-2.1,0-4.2,1.2-4.2,3.2
	c0.1,1.8,1.6,3.3,3.5,3.2h0.1c1.1,0.1,2.2-0.5,2.8-1.4h0.1v1.2h2.1v-5.6C136.6,30.7,134.7,29.2,132.2,29.2L132.2,29.2z M131.9,37.1
	c-0.7,0-1.7-0.4-1.7-1.2c0-1.2,1.2-1.5,2.3-1.5c0.7,0,1.4,0.2,2,0.5C134.4,36.1,133.3,37.1,131.9,37.1L131.9,37.1z M144.2,29.5
	l-2.5,6.3h-0.1l-2.6-6.3h-2.3l3.9,8.8l-2.2,4.9h2.3l5.9-13.6H144.2z M124.8,38.8h2.2V24.3h-2.2V38.8z"/>
<linearGradient id="SVGID_1_" gradientUnits="userSpaceOnUse" x1="26.3388" y1="-317.1613" x2="6.9331" y2="-336.567" gradientTransform="matrix(1 0 0 -1 0 -303)">
	<stop  offset="0" style="stop-color:#4696D2"/>
	<stop  offset="1.000000e-02" style="stop-color:#4598D3"/>
	<stop  offset="0.26" style="stop-color:#3FB9EB"/>
	<stop  offset="0.51" style="stop-color:#4AC1ED"/>
	<stop  offset="0.76" style="stop-color:#5CC4E6"/>
	<stop  offset="1" style="stop-color:#60C4E5"/>
</linearGradient>
<path class="st3" d="M13.2,12.8c-0.4,0.5-0.6,1-0.5,1.6V40c0,0.6,0.2,1.2,0.5,1.6l0.1,0.1l14.3-14.3v-0.3L13.2,12.8L13.2,12.8z"/>
<linearGradient id="SVGID_2_" gradientUnits="userSpaceOnUse" x1="40.2454" y1="-330.2122" x2="12.2702" y2="-330.2122" gradientTransform="matrix(1 0 0 -1 0 -303)">
	<stop  offset="0" style="stop-color:#FFE00A"/>
	<stop  offset="0.41" style="stop-color:#FBBC0F"/>
	<stop  offset="0.78" style="stop-color:#F7A418"/>
	<stop  offset="1" style="stop-color:#F59A1C"/>
</linearGradient>
<path class="st4" d="M32.3,32.2l-4.7-4.8v-0.3l4.7-4.8h0.1l5.7,3.3c1.6,0.9,1.6,2.4,0,3.3l-5.7,3.2L32.3,32.2z"/>
<linearGradient id="SVGID_3_" gradientUnits="userSpaceOnUse" x1="29.8342" y1="-332.8691" x2="3.5128" y2="-359.179" gradientTransform="matrix(1 0 0 -1 0 -303)">
	<stop  offset="0" style="stop-color:#E8424A"/>
	<stop  offset="1" style="stop-color:#C31262"/>
</linearGradient>
<path class="st5" d="M32.5,32.1l-4.9-4.9L13.2,41.6c0.7,0.6,1.7,0.6,2.4,0.1L32.5,32.1"/>
<linearGradient id="SVGID_4_" gradientUnits="userSpaceOnUse" x1="9.5612" y1="-307.2937" x2="21.311" y2="-319.0435" gradientTransform="matrix(1 0 0 -1 0 -303)">
	<stop  offset="0" style="stop-color:#32A071"/>
	<stop  offset="7.000000e-02" style="stop-color:#2DA771"/>
	<stop  offset="0.48" style="stop-color:#4FB26F"/>
	<stop  offset="0.8" style="stop-color:#61B668"/>
	<stop  offset="1" style="stop-color:#64B664"/>
</linearGradient>
<path class="st6" d="M32.5,22.3l-16.9-9.6c-0.7-0.6-1.7-0.5-2.4,0.1l14.4,14.4L32.5,22.3z"/>
<path class="st7" d="M32.3,32l-16.8,9.5c-0.7,0.5-1.6,0.5-2.3,0l0,0l-0.1,0.1l0,0l0.1,0.1l0,0c0.7,0.5,1.6,0.5,2.3,0l16.9-9.6
	L32.3,32z"/>
<path class="st8" d="M13.2,41.5c-0.4-0.5-0.6-1-0.5-1.6V40c0,0.6,0.2,1.2,0.5,1.6V41.5L13.2,41.5z"/>
<path class="st8" d="M38.1,28.7L32.3,32l0.1,0.1l5.7-3.2c0.7-0.3,1.1-0.9,1.2-1.7l0,0C39.2,27.9,38.7,28.4,38.1,28.7z"/>
<path class="st9" d="M15.6,12.9l22.5,12.8c0.6,0.3,1,0.9,1.2,1.5l0,0c-0.1-0.7-0.5-1.4-1.2-1.7L15.6,12.7c-1.6-0.9-2.9-0.2-2.9,1.7
	v0.2C12.7,12.7,14,12,15.6,12.9z"/>
<g>
	<path class="st10" d="M49.4,19.8h-1.2l3.2-8.6h1.2l3.2,8.6h-1.2l-0.8-2.3h-3.6L49.4,19.8z M52,12.5l-1.4,3.9h2.9L52,12.5L52,12.5z"
		/>
	<path class="st10" d="M59,11.1c0.4,0,0.7,0.1,1,0.2l-0.3,1c-0.2-0.1-0.4-0.1-0.6-0.1c-0.3,0-0.5,0.1-0.7,0.3s-0.3,0.4-0.3,0.8v0.7
		h1.5v1h-1.5v4.9H57v-4.9h-1.1v-1H57V13c0-0.6,0.2-1.1,0.6-1.4C57.9,11.3,58.4,11.1,59,11.1z"/>
	<path class="st10" d="M61.8,19.8h-1.1v-5.9h1.1v1h0c0.1-0.3,0.3-0.6,0.7-0.8c0.3-0.2,0.7-0.3,1-0.3c0.3,0,0.6,0,0.8,0.1L64,14.9
		c-0.1-0.1-0.4-0.1-0.6-0.1c-0.4,0-0.8,0.2-1.1,0.5c-0.3,0.3-0.5,0.7-0.5,1.2V19.8z"/>
	<path class="st10" d="M64.3,16.8c0-0.9,0.3-1.7,0.9-2.2c0.6-0.6,1.3-0.9,2.2-0.9s1.6,0.3,2.2,0.9c0.6,0.6,0.9,1.3,0.9,2.2
		c0,0.9-0.3,1.7-0.9,2.2C69,19.7,68.2,20,67.4,20s-1.6-0.3-2.2-0.9C64.6,18.5,64.3,17.7,64.3,16.8z M65.4,16.8
		c0,0.6,0.2,1.1,0.6,1.5c0.4,0.4,0.8,0.6,1.4,0.6s1-0.2,1.4-0.6c0.4-0.4,0.6-0.9,0.6-1.5c0-0.6-0.2-1.1-0.6-1.5
		c-0.4-0.4-0.8-0.6-1.4-0.6s-1,0.2-1.4,0.6C65.6,15.7,65.4,16.2,65.4,16.8z"/>
	<path class="st10" d="M75.6,20c-1.3,0-2.3-0.4-3.2-1.3c-0.8-0.9-1.3-1.9-1.3-3.2s0.4-2.3,1.3-3.2c0.8-0.9,1.9-1.3,3.2-1.3
		c1.3,0,2.3,0.5,3.2,1.4L78,13.2c-0.6-0.7-1.4-1.1-2.4-1.1c-1,0-1.7,0.3-2.4,1c-0.6,0.6-0.9,1.5-0.9,2.5s0.3,1.8,0.9,2.5
		c0.6,0.6,1.4,1,2.4,1c1,0,1.9-0.4,2.6-1.3l0.8,0.8c-0.4,0.5-0.9,0.9-1.5,1.1C76.9,19.8,76.3,20,75.6,20z"/>
	<path class="st10" d="M82.1,13.7c0.8,0,1.5,0.2,1.9,0.7c0.5,0.4,0.7,1,0.7,1.8v3.6h-1.1V19h0c-0.5,0.7-1.1,1-1.8,1
		c-0.6,0-1.2-0.2-1.6-0.6c-0.4-0.4-0.7-0.9-0.7-1.4c0-0.6,0.2-1.1,0.7-1.5c0.5-0.4,1.1-0.5,1.8-0.5c0.7,0,1.2,0.1,1.6,0.4v-0.3
		c0-0.4-0.2-0.7-0.5-1s-0.7-0.4-1.1-0.4c-0.6,0-1.1,0.3-1.5,0.8l-1-0.6C80.3,14.1,81.1,13.7,82.1,13.7z M80.7,18
		c0,0.3,0.1,0.5,0.4,0.7s0.5,0.3,0.9,0.3c0.5,0,0.9-0.2,1.2-0.5c0.4-0.3,0.5-0.7,0.5-1.2c-0.3-0.3-0.8-0.4-1.4-0.4
		c-0.4,0-0.8,0.1-1.1,0.3C80.9,17.4,80.7,17.7,80.7,18z"/>
	<path class="st10" d="M89.1,20c-0.4,0-0.8-0.1-1.2-0.3c-0.4-0.2-0.6-0.4-0.8-0.7h0v0.8H86v-8.6h1.1v2.7l0,0.8h0
		c0.2-0.3,0.5-0.5,0.8-0.7c0.4-0.2,0.8-0.3,1.2-0.3c0.8,0,1.4,0.3,2,0.9c0.6,0.6,0.8,1.4,0.8,2.2c0,0.9-0.3,1.6-0.8,2.2
		C90.6,19.7,89.9,20,89.1,20z M88.9,19c0.5,0,1-0.2,1.3-0.6c0.4-0.4,0.5-0.9,0.5-1.5c0-0.6-0.2-1.1-0.5-1.5
		c-0.4-0.4-0.8-0.6-1.3-0.6c-0.5,0-1,0.2-1.3,0.6c-0.4,0.4-0.5,0.9-0.5,1.5c0,0.6,0.2,1.1,0.5,1.5C88,18.8,88.4,19,88.9,19z"/>
	<path class="st10" d="M97.4,18.1c0,0.5-0.2,0.9-0.7,1.3S95.7,20,95,20c-0.6,0-1.1-0.2-1.6-0.5c-0.4-0.3-0.8-0.7-1-1.2l1-0.4
		c0.1,0.4,0.4,0.6,0.6,0.8c0.3,0.2,0.6,0.3,0.9,0.3c0.4,0,0.6-0.1,0.9-0.2c0.2-0.2,0.4-0.3,0.4-0.5c0-0.4-0.3-0.7-0.9-0.8l-1-0.3
		c-1.1-0.3-1.7-0.8-1.7-1.7c0-0.5,0.2-1,0.7-1.3c0.4-0.3,1-0.5,1.7-0.5c0.5,0,1,0.1,1.4,0.4c0.4,0.2,0.7,0.6,0.9,1l-1,0.4
		c-0.1-0.2-0.3-0.4-0.5-0.6s-0.5-0.2-0.8-0.2c-0.3,0-0.5,0.1-0.8,0.2c-0.2,0.1-0.3,0.3-0.3,0.5c0,0.3,0.3,0.6,0.9,0.7l0.9,0.2
		C96.8,16.7,97.4,17.3,97.4,18.1z"/>
	<path class="st11" d="M101.2,19.8v-8.6h2.6c1.3,0,2.4,0.4,3.2,1.2c0.8,0.8,1.2,1.8,1.2,3.1c0,1.3-0.4,2.3-1.2,3.1
		c-0.8,0.8-1.9,1.2-3.2,1.2H101.2z M102.3,12.2v6.5h1.5c1,0,1.8-0.3,2.4-0.9c0.6-0.6,0.9-1.4,0.9-2.4c0-1-0.3-1.8-0.9-2.4
		c-0.6-0.6-1.4-0.9-2.4-0.9H102.3z"/>
	<path class="st11" d="M110.1,19.8H109v-5.9h1.1v1h0c0.1-0.3,0.3-0.6,0.7-0.8c0.3-0.2,0.7-0.3,1-0.3c0.3,0,0.6,0,0.8,0.1l-0.3,1.1
		c-0.1-0.1-0.4-0.1-0.6-0.1c-0.4,0-0.8,0.2-1.1,0.5c-0.3,0.3-0.5,0.7-0.5,1.2V19.8z"/>
	<path class="st11" d="M114.8,11.9c0,0.2-0.1,0.4-0.2,0.6c-0.2,0.2-0.3,0.2-0.6,0.2c-0.2,0-0.4-0.1-0.6-0.2
		c-0.2-0.2-0.2-0.3-0.2-0.6c0-0.2,0.1-0.4,0.2-0.6c0.2-0.2,0.3-0.2,0.6-0.2c0.2,0,0.4,0.1,0.6,0.2C114.7,11.5,114.8,11.6,114.8,11.9
		z M114.6,13.9v5.9h-1.1v-5.9H114.6z"/>
	<path class="st11" d="M118.9,19.8h-1.1l-2.4-5.9h1.2l1.7,4.6h0l1.8-4.6h1.2L118.9,19.8z"/>
	<path class="st11" d="M124.5,20c-0.9,0-1.6-0.3-2.1-0.9c-0.6-0.6-0.8-1.3-0.8-2.2c0-0.9,0.3-1.6,0.8-2.2c0.5-0.6,1.2-0.9,2.1-0.9
		c0.9,0,1.6,0.3,2.1,0.8c0.5,0.6,0.8,1.4,0.8,2.4l0,0.1h-4.6c0,0.6,0.2,1,0.6,1.4c0.4,0.4,0.8,0.5,1.3,0.5c0.7,0,1.3-0.4,1.7-1.1
		l1,0.5c-0.3,0.5-0.6,0.9-1.1,1.2C125.6,19.8,125,20,124.5,20z M122.7,16.1h3.4c0-0.4-0.2-0.7-0.5-1s-0.7-0.4-1.2-0.4
		c-0.4,0-0.8,0.1-1.1,0.4C123,15.3,122.8,15.7,122.7,16.1z"/>
	<path class="st11" d="M129.4,19.8h-1.1v-5.9h1.1v1h0c0.1-0.3,0.3-0.6,0.7-0.8c0.3-0.2,0.7-0.3,1-0.3c0.3,0,0.6,0,0.8,0.1l-0.3,1.1
		c-0.1-0.1-0.4-0.1-0.6-0.1c-0.4,0-0.8,0.2-1.1,0.5c-0.3,0.3-0.5,0.7-0.5,1.2V19.8z"/>
	<path class="st10" d="M134.9,16.8c0-0.9,0.3-1.7,0.9-2.2c0.6-0.6,1.3-0.9,2.2-0.9c0.9,0,1.6,0.3,2.2,0.9c0.6,0.6,0.9,1.3,0.9,2.2
		c0,0.9-0.3,1.7-0.9,2.2c-0.6,0.6-1.3,0.9-2.2,0.9c-0.9,0-1.6-0.3-2.2-0.9C135.2,18.5,134.9,17.7,134.9,16.8z M136,16.8
		c0,0.6,0.2,1.1,0.6,1.5s0.8,0.6,1.4,0.6c0.5,0,1-0.2,1.4-0.6c0.4-0.4,0.6-0.9,0.6-1.5c0-0.6-0.2-1.1-0.6-1.5
		c-0.4-0.4-0.8-0.6-1.4-0.6c-0.5,0-1,0.2-1.4,0.6C136.2,15.7,136,16.2,136,16.8z"/>
	<path class="st10" d="M141.8,13.9h1.1v0.8h0c0.2-0.3,0.4-0.5,0.8-0.7c0.3-0.2,0.7-0.3,1.1-0.3c0.7,0,1.3,0.2,1.7,0.6
		c0.4,0.4,0.6,1,0.6,1.8v3.7h-1.1v-3.6c0-1-0.5-1.4-1.5-1.4c-0.4,0-0.8,0.2-1.1,0.5s-0.4,0.8-0.4,1.3v3.3h-1.1V13.9z"/>
</g>
</svg>
